<mxfile host="app.diagrams.net" modified="2023-02-01T04:02:32.812Z" agent="5.0 (Windows NT 10.0) AppleWebKit/537.36 (KHTML, like Gecko) Chrome/99.0.7113.93 Safari/537.36" etag="CkT45DtByyRTuUehmXYH" version="20.8.11" type="github">
  <diagram id="C5RBs43oDa-KdzZeNtuy" name="Page-1">
    <mxGraphModel dx="1434" dy="751" grid="1" gridSize="10" guides="1" tooltips="1" connect="1" arrows="1" fold="1" page="1" pageScale="1" pageWidth="827" pageHeight="1169" math="0" shadow="0">
      <root>
        <mxCell id="WIyWlLk6GJQsqaUBKTNV-0" />
        <mxCell id="WIyWlLk6GJQsqaUBKTNV-1" parent="WIyWlLk6GJQsqaUBKTNV-0" />
        <mxCell id="Fg-Liu7Tp-31wvyyyOEm-7" value="" style="rounded=1;whiteSpace=wrap;html=1;" vertex="1" parent="WIyWlLk6GJQsqaUBKTNV-1">
          <mxGeometry x="370" y="180" width="160" height="170" as="geometry" />
        </mxCell>
        <mxCell id="WIyWlLk6GJQsqaUBKTNV-2" value="" style="rounded=0;html=1;jettySize=auto;orthogonalLoop=1;fontSize=11;endArrow=classic;endFill=1;endSize=8;strokeWidth=1;shadow=0;labelBackgroundColor=none;edgeStyle=orthogonalEdgeStyle;startArrow=classic;startFill=1;" parent="WIyWlLk6GJQsqaUBKTNV-1" source="WIyWlLk6GJQsqaUBKTNV-3" target="WIyWlLk6GJQsqaUBKTNV-6" edge="1">
          <mxGeometry relative="1" as="geometry" />
        </mxCell>
        <mxCell id="WIyWlLk6GJQsqaUBKTNV-3" value="&lt;div&gt;Unit Network&lt;/div&gt;&lt;div&gt;Substrate node&lt;br&gt;&lt;/div&gt;" style="rounded=1;whiteSpace=wrap;html=1;fontSize=12;glass=0;strokeWidth=1;shadow=0;" parent="WIyWlLk6GJQsqaUBKTNV-1" vertex="1">
          <mxGeometry x="160" y="80" width="120" height="40" as="geometry" />
        </mxCell>
        <mxCell id="WIyWlLk6GJQsqaUBKTNV-6" value="&lt;div&gt;Unit Network&lt;/div&gt;&lt;div&gt;Front-end&lt;/div&gt;&lt;div&gt;Balances in HTML&lt;br&gt;&lt;/div&gt;" style="rhombus;whiteSpace=wrap;html=1;shadow=0;fontFamily=Helvetica;fontSize=12;align=center;strokeWidth=1;spacing=6;spacingTop=-4;" parent="WIyWlLk6GJQsqaUBKTNV-1" vertex="1">
          <mxGeometry x="121.25" y="170" width="197.5" height="80" as="geometry" />
        </mxCell>
        <mxCell id="Fg-Liu7Tp-31wvyyyOEm-0" value="" style="edgeStyle=orthogonalEdgeStyle;rounded=0;orthogonalLoop=1;jettySize=auto;html=1;startArrow=classic;startFill=1;" edge="1" parent="WIyWlLk6GJQsqaUBKTNV-1" source="WIyWlLk6GJQsqaUBKTNV-7" target="WIyWlLk6GJQsqaUBKTNV-6">
          <mxGeometry relative="1" as="geometry" />
        </mxCell>
        <mxCell id="WIyWlLk6GJQsqaUBKTNV-7" value="py requests&lt;br&gt;py parsing" style="rounded=1;whiteSpace=wrap;html=1;fontSize=12;glass=0;strokeWidth=1;shadow=0;" parent="WIyWlLk6GJQsqaUBKTNV-1" vertex="1">
          <mxGeometry x="390" y="190" width="120" height="40" as="geometry" />
        </mxCell>
        <mxCell id="Fg-Liu7Tp-31wvyyyOEm-1" value="" style="edgeStyle=orthogonalEdgeStyle;rounded=0;html=1;jettySize=auto;orthogonalLoop=1;fontSize=11;endArrow=classic;endFill=1;endSize=8;strokeWidth=1;shadow=0;labelBackgroundColor=none;exitX=0.5;exitY=1;exitDx=0;exitDy=0;startArrow=classic;startFill=1;" edge="1" parent="WIyWlLk6GJQsqaUBKTNV-1" target="Fg-Liu7Tp-31wvyyyOEm-2" source="WIyWlLk6GJQsqaUBKTNV-7">
          <mxGeometry y="10" relative="1" as="geometry">
            <mxPoint as="offset" />
            <mxPoint x="328.75" y="220" as="sourcePoint" />
          </mxGeometry>
        </mxCell>
        <mxCell id="Fg-Liu7Tp-31wvyyyOEm-5" style="edgeStyle=orthogonalEdgeStyle;rounded=0;orthogonalLoop=1;jettySize=auto;html=1;exitX=0.5;exitY=1;exitDx=0;exitDy=0;startArrow=classic;startFill=1;" edge="1" parent="WIyWlLk6GJQsqaUBKTNV-1" source="Fg-Liu7Tp-31wvyyyOEm-2" target="Fg-Liu7Tp-31wvyyyOEm-3">
          <mxGeometry relative="1" as="geometry" />
        </mxCell>
        <mxCell id="Fg-Liu7Tp-31wvyyyOEm-2" value="&lt;div&gt;Telegram bot&lt;/div&gt;" style="rounded=1;whiteSpace=wrap;html=1;fontSize=12;glass=0;strokeWidth=1;shadow=0;" vertex="1" parent="WIyWlLk6GJQsqaUBKTNV-1">
          <mxGeometry x="390" y="290" width="120" height="40" as="geometry" />
        </mxCell>
        <mxCell id="Fg-Liu7Tp-31wvyyyOEm-6" style="edgeStyle=orthogonalEdgeStyle;rounded=0;orthogonalLoop=1;jettySize=auto;html=1;exitX=0.5;exitY=1;exitDx=0;exitDy=0;startArrow=classic;startFill=1;" edge="1" parent="WIyWlLk6GJQsqaUBKTNV-1" source="Fg-Liu7Tp-31wvyyyOEm-3" target="Fg-Liu7Tp-31wvyyyOEm-4">
          <mxGeometry relative="1" as="geometry" />
        </mxCell>
        <mxCell id="Fg-Liu7Tp-31wvyyyOEm-3" value="Telegram bot user" style="rounded=1;whiteSpace=wrap;html=1;fontSize=12;glass=0;strokeWidth=1;shadow=0;" vertex="1" parent="WIyWlLk6GJQsqaUBKTNV-1">
          <mxGeometry x="390" y="390" width="120" height="40" as="geometry" />
        </mxCell>
        <mxCell id="Fg-Liu7Tp-31wvyyyOEm-4" value="Telegram group" style="rounded=1;whiteSpace=wrap;html=1;fontSize=12;glass=0;strokeWidth=1;shadow=0;" vertex="1" parent="WIyWlLk6GJQsqaUBKTNV-1">
          <mxGeometry x="390" y="480" width="120" height="40" as="geometry" />
        </mxCell>
        <mxCell id="Fg-Liu7Tp-31wvyyyOEm-9" value="" style="rounded=1;whiteSpace=wrap;html=1;" vertex="1" parent="WIyWlLk6GJQsqaUBKTNV-1">
          <mxGeometry x="940" y="70" width="160" height="170" as="geometry" />
        </mxCell>
        <mxCell id="Fg-Liu7Tp-31wvyyyOEm-25" value="WSS" style="edgeStyle=orthogonalEdgeStyle;rounded=0;orthogonalLoop=1;jettySize=auto;html=1;entryX=0.5;entryY=0;entryDx=0;entryDy=0;fontSize=14;startArrow=classic;startFill=1;endArrow=classic;endFill=1;" edge="1" parent="WIyWlLk6GJQsqaUBKTNV-1" source="Fg-Liu7Tp-31wvyyyOEm-11" target="Fg-Liu7Tp-31wvyyyOEm-24">
          <mxGeometry relative="1" as="geometry" />
        </mxCell>
        <mxCell id="Fg-Liu7Tp-31wvyyyOEm-11" value="&lt;div&gt;Unit Network&lt;/div&gt;&lt;div&gt;Substrate node&lt;br&gt;&lt;/div&gt;" style="rounded=1;whiteSpace=wrap;html=1;fontSize=12;glass=0;strokeWidth=1;shadow=0;" vertex="1" parent="WIyWlLk6GJQsqaUBKTNV-1">
          <mxGeometry x="730" y="80" width="120" height="40" as="geometry" />
        </mxCell>
        <mxCell id="Fg-Liu7Tp-31wvyyyOEm-13" value="WSS" style="edgeStyle=orthogonalEdgeStyle;rounded=0;orthogonalLoop=1;jettySize=auto;html=1;startArrow=classic;startFill=1;entryX=1;entryY=0.5;entryDx=0;entryDy=0;" edge="1" parent="WIyWlLk6GJQsqaUBKTNV-1" source="Fg-Liu7Tp-31wvyyyOEm-14" target="Fg-Liu7Tp-31wvyyyOEm-11">
          <mxGeometry relative="1" as="geometry">
            <mxPoint x="888.75" y="100" as="targetPoint" />
          </mxGeometry>
        </mxCell>
        <mxCell id="Fg-Liu7Tp-31wvyyyOEm-14" value="py substrate" style="rounded=1;whiteSpace=wrap;html=1;fontSize=12;glass=0;strokeWidth=1;shadow=0;" vertex="1" parent="WIyWlLk6GJQsqaUBKTNV-1">
          <mxGeometry x="960" y="80" width="120" height="40" as="geometry" />
        </mxCell>
        <mxCell id="Fg-Liu7Tp-31wvyyyOEm-15" value="" style="edgeStyle=orthogonalEdgeStyle;rounded=0;html=1;jettySize=auto;orthogonalLoop=1;fontSize=11;endArrow=classic;endFill=1;endSize=8;strokeWidth=1;shadow=0;labelBackgroundColor=none;exitX=0.5;exitY=1;exitDx=0;exitDy=0;startArrow=classic;startFill=1;" edge="1" parent="WIyWlLk6GJQsqaUBKTNV-1" source="Fg-Liu7Tp-31wvyyyOEm-14" target="Fg-Liu7Tp-31wvyyyOEm-17">
          <mxGeometry y="10" relative="1" as="geometry">
            <mxPoint as="offset" />
            <mxPoint x="898.75" y="110" as="sourcePoint" />
          </mxGeometry>
        </mxCell>
        <mxCell id="Fg-Liu7Tp-31wvyyyOEm-16" style="edgeStyle=orthogonalEdgeStyle;rounded=0;orthogonalLoop=1;jettySize=auto;html=1;exitX=0.5;exitY=1;exitDx=0;exitDy=0;startArrow=classic;startFill=1;" edge="1" parent="WIyWlLk6GJQsqaUBKTNV-1" source="Fg-Liu7Tp-31wvyyyOEm-17" target="Fg-Liu7Tp-31wvyyyOEm-19">
          <mxGeometry relative="1" as="geometry" />
        </mxCell>
        <mxCell id="Fg-Liu7Tp-31wvyyyOEm-17" value="&lt;div&gt;Telegram bot&lt;/div&gt;" style="rounded=1;whiteSpace=wrap;html=1;fontSize=12;glass=0;strokeWidth=1;shadow=0;" vertex="1" parent="WIyWlLk6GJQsqaUBKTNV-1">
          <mxGeometry x="960" y="180" width="120" height="40" as="geometry" />
        </mxCell>
        <mxCell id="Fg-Liu7Tp-31wvyyyOEm-18" style="edgeStyle=orthogonalEdgeStyle;rounded=0;orthogonalLoop=1;jettySize=auto;html=1;exitX=0.5;exitY=1;exitDx=0;exitDy=0;startArrow=classic;startFill=1;" edge="1" parent="WIyWlLk6GJQsqaUBKTNV-1" source="Fg-Liu7Tp-31wvyyyOEm-19" target="Fg-Liu7Tp-31wvyyyOEm-20">
          <mxGeometry relative="1" as="geometry" />
        </mxCell>
        <mxCell id="Fg-Liu7Tp-31wvyyyOEm-19" value="Telegram bot user" style="rounded=1;whiteSpace=wrap;html=1;fontSize=12;glass=0;strokeWidth=1;shadow=0;" vertex="1" parent="WIyWlLk6GJQsqaUBKTNV-1">
          <mxGeometry x="960" y="280" width="120" height="40" as="geometry" />
        </mxCell>
        <mxCell id="Fg-Liu7Tp-31wvyyyOEm-20" value="Telegram group" style="rounded=1;whiteSpace=wrap;html=1;fontSize=12;glass=0;strokeWidth=1;shadow=0;" vertex="1" parent="WIyWlLk6GJQsqaUBKTNV-1">
          <mxGeometry x="960" y="370" width="120" height="40" as="geometry" />
        </mxCell>
        <mxCell id="Fg-Liu7Tp-31wvyyyOEm-22" value="VS." style="text;html=1;strokeColor=none;fillColor=none;align=center;verticalAlign=middle;whiteSpace=wrap;rounded=0;fontSize=48;" vertex="1" parent="WIyWlLk6GJQsqaUBKTNV-1">
          <mxGeometry x="510" y="60" width="230" height="140" as="geometry" />
        </mxCell>
        <mxCell id="Fg-Liu7Tp-31wvyyyOEm-24" value="Local frontend" style="rounded=1;whiteSpace=wrap;html=1;fontSize=12;glass=0;strokeWidth=1;shadow=0;" vertex="1" parent="WIyWlLk6GJQsqaUBKTNV-1">
          <mxGeometry x="730" y="180" width="120" height="40" as="geometry" />
        </mxCell>
        <mxCell id="Fg-Liu7Tp-31wvyyyOEm-26" value="&lt;div&gt;&lt;font style=&quot;font-size: 14px;&quot;&gt;- Less centralized&lt;br&gt;&lt;/font&gt;&lt;/div&gt;&lt;div&gt;&lt;font style=&quot;font-size: 14px;&quot;&gt;- Possibility fof local frontend&lt;br&gt;&lt;/font&gt;&lt;/div&gt;" style="text;html=1;strokeColor=none;fillColor=none;align=center;verticalAlign=middle;whiteSpace=wrap;rounded=0;fontSize=14;" vertex="1" parent="WIyWlLk6GJQsqaUBKTNV-1">
          <mxGeometry x="680" y="280" width="220" height="70" as="geometry" />
        </mxCell>
        <mxCell id="Fg-Liu7Tp-31wvyyyOEm-27" value="SPoF" style="text;html=1;strokeColor=none;fillColor=none;align=center;verticalAlign=middle;whiteSpace=wrap;rounded=0;fontSize=14;" vertex="1" parent="WIyWlLk6GJQsqaUBKTNV-1">
          <mxGeometry x="80" y="230" width="150" height="50" as="geometry" />
        </mxCell>
      </root>
    </mxGraphModel>
  </diagram>
</mxfile>
